<?xml version="1.0" standalone="no"?>
<!DOCTYPE svg PUBLIC "-//W3C//DTD SVG 20010904//EN"
 "http://www.w3.org/TR/2001/REC-SVG-20010904/DTD/svg10.dtd">
<svg version="1.0" xmlns="http://www.w3.org/2000/svg"
 width="700.000000pt" height="700.000000pt" viewBox="0 0 700.000000 700.000000"
 preserveAspectRatio="xMidYMid meet">
<metadata>
Created by potrace 1.11, written by Peter Selinger 2001-2013
</metadata>
<g transform="translate(0.000000,700.000000) scale(0.100000,-0.100000)"
fill="#000000" stroke="none">
<path d="M3641 6169 c-574 -65 -1058 -364 -1375 -851 -32 -49 -59 -88 -60 -88
-2 0 -29 9 -62 21 -536 187 -1115 -189 -1151 -748 -5 -79 -9 -93 -23 -93 -51
0 -226 -56 -324 -103 -241 -117 -424 -300 -536 -539 -290 -620 21 -1349 670
-1570 138 -47 229 -58 465 -58 210 0 212 0 238 24 46 43 48 106 3 151 -22 22
-30 23 -252 28 -271 6 -343 20 -499 97 -190 93 -339 241 -430 425 -64 131 -86
217 -92 368 -6 142 6 240 41 345 119 349 414 586 785 632 147 19 165 40 156
178 -9 121 12 222 71 342 111 224 336 363 589 363 105 1 189 -19 294 -68 122
-58 165 -47 217 58 15 29 51 90 82 137 244 376 610 625 1062 722 89 19 136 22
315 23 184 0 225 -3 325 -24 563 -117 1006 -490 1216 -1024 32 -82 54 -123 71
-134 18 -12 56 -17 156 -19 207 -4 368 -43 541 -132 330 -169 561 -475 636
-841 40 -198 22 -452 -46 -643 -139 -390 -485 -693 -889 -778 -77 -16 -105
-30 -120 -61 -39 -74 6 -149 88 -149 103 0 332 79 490 170 479 274 761 832
698 1379 -80 687 -635 1216 -1318 1259 l-105 7 -47 105 c-223 499 -652 872
-1176 1025 -203 59 -507 87 -704 64z"/>
<path d="M3368 4519 c-706 -97 -1294 -583 -1517 -1254 -182 -547 -104 -1133
214 -1611 186 -279 437 -498 740 -645 590 -287 1283 -239 1830 125 699 466
997 1331 734 2130 -47 144 -126 308 -207 431 -85 128 -129 175 -172 181 -47 7
-94 -23 -110 -70 -14 -44 -8 -56 98 -211 124 -182 201 -367 249 -594 23 -109
26 -151 27 -311 0 -129 -5 -214 -17 -280 -121 -698 -646 -1225 -1350 -1357
-130 -24 -425 -24 -562 1 -519 94 -969 433 -1196 902 -262 541 -213 1168 129
1664 124 181 370 402 562 507 156 85 363 154 555 184 114 18 389 16 500 -4
258 -48 465 -132 680 -276 77 -53 114 -54 161 -7 64 64 42 118 -83 202 -192
128 -434 227 -669 275 -87 17 -152 22 -319 25 -115 1 -240 -2 -277 -7z"/>
<path d="M3457 4088 c-534 -54 -1005 -428 -1185 -939 -59 -168 -77 -275 -77
-469 1 -244 37 -410 135 -614 101 -213 299 -440 497 -570 367 -242 822 -301
1238 -161 343 115 647 381 813 711 53 105 97 233 124 357 28 134 31 387 5 522
-81 420 -327 769 -693 984 -161 94 -370 160 -568 180 -123 12 -163 12 -289 -1z
m53 -273 c0 -77 12 -106 52 -129 40 -24 89 -14 122 25 23 26 26 40 26 101 l0
71 69 -7 c101 -9 341 -83 341 -105 0 -3 -14 -28 -30 -56 -40 -68 -41 -121 -1
-159 21 -20 39 -28 65 -28 50 0 78 21 115 87 23 40 35 54 46 48 83 -47 294
-270 279 -295 -3 -4 -24 -18 -46 -29 -92 -47 -115 -118 -59 -181 39 -44 86
-44 159 0 29 18 55 32 57 32 6 0 31 -60 56 -133 19 -57 41 -152 53 -234 l6
-43 -74 0 c-65 0 -78 -3 -104 -25 -51 -43 -51 -107 -1 -154 19 -17 35 -21 95
-21 40 0 75 -3 77 -7 17 -27 -63 -342 -98 -389 -11 -16 -16 -15 -67 14 -73 42
-119 43 -159 3 -22 -22 -29 -39 -29 -68 0 -50 18 -75 85 -113 30 -17 55 -34
55 -37 0 -33 -269 -298 -294 -290 -6 2 -24 27 -42 57 -50 86 -120 106 -175 51
-39 -40 -39 -88 2 -161 27 -50 28 -56 13 -67 -27 -20 -198 -74 -282 -88 -120
-22 -112 -26 -112 61 0 70 -2 78 -29 105 -41 41 -101 41 -142 0 -27 -27 -29
-35 -29 -106 l0 -76 -57 7 c-110 13 -333 80 -348 104 -3 5 8 33 25 63 40 71
40 118 1 158 -55 54 -129 33 -174 -50 -16 -28 -32 -53 -38 -57 -20 -12 -164
116 -262 235 -20 25 -37 48 -37 52 0 4 25 22 55 39 67 38 85 63 85 113 0 29
-7 46 -29 68 -40 39 -86 39 -158 -2 -31 -18 -58 -28 -63 -23 -26 26 -89 238
-105 357 l-6 47 79 0 c73 0 80 2 106 29 33 35 38 86 12 125 -23 35 -54 46
-132 46 l-65 0 6 48 c16 117 77 325 105 355 4 5 31 -6 61 -24 74 -45 121 -45
160 -1 54 60 35 126 -52 177 -30 17 -54 37 -54 43 0 32 209 244 282 286 7 4
23 -15 43 -49 38 -66 66 -87 117 -87 29 0 43 7 65 31 38 42 37 88 -3 158 -18
31 -28 58 -23 63 29 29 369 117 397 103 4 -2 7 -33 7 -68z"/>
<path d="M2994 3296 c-27 -27 -34 -42 -34 -72 0 -37 11 -50 275 -314 l275
-275 0 -329 0 -328 29 -29 c41 -41 101 -41 142 0 l29 29 0 373 0 373 -287 289
c-159 159 -300 295 -315 303 -44 23 -77 17 -114 -20z"/>
</g>
</svg>
